<svg xmlns="http://www.w3.org/2000/svg" version="1.1" class="drawSvg" width="792" height="725"><rect id="bg" width="100%" height="100%" fill="#FFFFFF"/><path d="M2,477L3,476L7,475L11,474L17,473L23,473L29,473L36,473L42,473L48,473L54,473L60,474L67,475L74,476L81,478L92,480L95,480L103,481L111,483L120,484L129,485L139,485L147,486L155,486L164,486L173,486L182,485L192,484L202,482L213,480L225,479L239,477L255,475L279,472L288,472L307,471L325,470L342,470L358,470L374,470L390,470L405,470L420,471L434,474L447,476L458,479L467,481L478,484L480,485L484,486L487,487L489,487L491,487L496,487L507,487L522,487L535,486L546,486L557,485L567,485L578,484L588,483L598,483L608,482L621,481L625,480L632,480L639,479L646,478L652,478L658,477L663,477L667,477L672,476L676,476L680,476L685,476L690,476L696,475L702,475L708,474L715,474L721,473L726,473L731,473L735,473L739,473L742,473L744,474L747,475L750,476L753,477L755,478L758,479L760,480L763,481L766,482L769,483L772,484L776,485L778,486L780,486L782,487L783,487L784,487L785,487L786,487L787,487L788,487L788,487L788,487L788,487" fill="none" stroke-linecap="round" stroke-linejoin="round" stroke="#292929" id="277" stroke-width="8"/><path d="M94,475L94,474L94,471L95,464L98,455L102,444L107,430L111,414L114,397L118,381L120,363L121,348L122,335L122,325L122,318L122,314L122,311L122,310L122,310L122,310L122,310L122,310" fill="none" stroke-linecap="round" stroke-linejoin="round" stroke="#292929" id="724" stroke-width="8"/><path d="M164,314L164,314L164,314L164,315L164,317L164,320L164,324L164,329L164,337L164,345L164,353L164,360L164,366L164,372L164,376L164,381L164,387L164,392L164,398L165,403L166,407L167,411L168,415L169,419L170,422L171,425L172,428L173,432L174,435L175,438L176,441L177,443L178,446L179,447L180,449L181,450L181,451L182,452L182,452L183,453L184,454L184,455L185,456L186,457L187,459L188,462L190,464L191,467L192,469L193,471L195,473L196,474L196,476L197,477L198,479L198,479L199,480L199,481L199,481L199,482L199,482L200,483L200,483L200,483L200,483L200,483L200,483" fill="none" stroke-linecap="round" stroke-linejoin="round" stroke="#292929" id="99" stroke-width="8"/><path d="M115,338L114,338L111,338L106,338L102,338L98,338L94,338L90,336L85,333L81,328L77,323L75,319L75,316L75,313L75,311L75,308L76,307L77,306L78,306L79,305L79,306L79,306L78,307L76,308L74,308L70,308L67,308L63,306L59,303L55,298L52,292L50,288L48,283L47,276L47,268L47,262L47,258L48,255L48,254L49,254L49,254L48,252L47,250L46,246L45,239L44,231L44,222L47,210L54,199L61,192L68,187L73,184L78,183L80,183L81,183L81,183L81,183L81,182L81,180L81,177L83,172L89,166L98,160L109,154L121,150L131,148L139,148L145,148L147,148L149,149L149,150L149,150L149,150L149,150L151,149L153,147L158,144L166,142L176,140L184,140L190,140L195,141L198,143L199,144L199,145L199,146L199,147L199,147L200,147L202,147L205,148L210,150L215,153L220,157L224,162L226,168L227,171L228,174L228,176L228,177L228,177L228,177L230,178L235,180L241,185L247,193L253,205L256,219L257,233L257,244L257,253L257,257L256,259L256,260L255,261L255,261L255,261L255,263L256,269L259,280L261,292L261,304L261,313L260,319L256,323L251,325L247,326L243,327L241,327L239,327L238,327L237,327L236,327L236,327L235,327L232,327L226,327L218,327L210,327L202,327L194,327L188,327L184,327L181,326L180,324L180,322L180,321L180,320L180,320L180,320L182,320L184,320L186,322L187,323L188,324L189,326L189,327L189,328L187,329L185,331L182,332L180,333L178,334L177,334L176,335L176,335L175,335L175,335L174,335L174,335L173,335L173,335L172,335L171,335L170,335L169,335L169,335L169,335" fill="none" stroke-linecap="round" stroke-linejoin="round" stroke="#12EB0A" id="677" stroke-width="8"/><path d="M221,288L221,288L221,288L221,287L221,287L221,286L221,285L221,283L222,282L222,281L223,280L224,280L225,280L225,280L226,280L227,280L227,280L229,280L229,280L230,280L231,280L231,280L232,280L232,281L232,281L233,282L233,282L233,283L233,283L233,284L233,285L233,285L233,286L233,286L233,287L233,288L232,288L232,289L231,289L231,290L230,290L229,291L228,291L227,291L226,291L225,291L225,291L224,291L223,291L223,291L222,291L222,291L221,291L221,291L221,290L221,289L221,289L221,289" fill="none" stroke-linecap="round" stroke-linejoin="round" stroke="#FF3030" id="267" stroke-width="8"/><path d="M81,278L81,277L81,277L81,275L81,273L81,271L82,269L83,268L84,267L86,266L88,265L89,265L90,265L91,265L91,265L92,266L92,266L93,267L94,268L94,269L94,269L95,270L95,270L95,271L95,272L95,272L95,273L95,274L95,274L95,275L95,276L94,276L94,277L93,277L93,278L92,278L91,278L90,278L89,278L88,279L87,279L87,279L86,279L86,279L85,279L85,278L84,278L84,278L84,277L85,277L85,277" fill="none" stroke-linecap="round" stroke-linejoin="round" stroke="#FF3030" id="233" stroke-width="8"/><path d="M162,180L162,180L162,180L162,179L162,177L162,176L162,175L163,174L163,173L164,172L165,171L166,171L167,171L168,171L169,171L169,171L170,171L170,171L171,172L172,172L172,172L173,173L173,174L174,174L175,175L175,175L175,176L175,176L175,177L175,178L175,179L175,179L175,180L175,180L175,181L175,182L175,183L174,183L173,184L172,184L171,184L170,184L168,184L168,184L167,184L166,184L166,184L165,184L165,184L164,184L164,184L164,183L163,183L163,183L163,182L164,182L164,182" fill="none" stroke-linecap="round" stroke-linejoin="round" stroke="#FF3030" id="637" stroke-width="8"/><path d="M150,272L150,272L150,271L150,271L150,270L150,269L150,268L150,267L151,266L151,266L152,266L153,266L154,266L155,266L156,266L157,266L158,266L159,266L160,266L160,266L161,266L161,267L162,267L162,267L163,268L163,268L163,269L163,269L163,270L163,270L163,271L163,271L163,272L163,273L163,274L163,274L162,275L161,276L161,276L160,276L159,277L159,277L158,277L157,277L157,277L156,277L156,277L155,277L155,277L154,277L154,277L154,276L153,276L153,275L153,275L153,274L153,274L153,274" fill="none" stroke-linecap="round" stroke-linejoin="round" stroke="#FF3030" id="522" stroke-width="8"/><path d="M109,210L109,210L109,208L109,208L110,208L111,208L113,207L114,207L115,207L115,207L116,207L117,208L117,208L118,209L118,210L119,210L119,211L119,212L119,212L119,213L119,214L119,214L119,215L119,216L119,216L119,217L119,218L119,219L119,219L119,220L118,221L118,221L117,222L116,222L116,223L115,223L114,223L113,223L112,223L111,223L110,222L110,222L109,221L109,220L109,220L108,219L108,218L108,217L108,216L108,215L108,214L108,213L108,212L108,212L109,211L109,211L110,211L110,211L111,210L111,210L111,210L112,210L112,210" fill="none" stroke-linecap="round" stroke-linejoin="round" stroke="#FF3030" id="596" stroke-width="8"/><path d="M612,182L612,182L611,182L609,182L606,181L603,179L599,176L596,172L593,167L590,162L589,157L588,152L587,148L587,143L587,139L587,135L589,131L591,128L594,125L598,121L603,117L610,112L616,108L622,105L627,103L633,102L638,102L644,102L649,102L653,102L656,102L659,104L663,107L665,108L668,111L671,114L674,117L676,120L679,124L681,128L683,132L684,136L685,140L686,143L686,146L686,149L686,153L686,158L686,163L684,167L682,171L680,174L678,176L676,178L673,179L671,180L669,181L666,182L664,183L661,184L658,184L655,185L652,185L650,186L645,187L644,187L642,187L639,187L636,187L634,187L632,188L630,188L628,188L626,188L624,188L623,188L621,188L620,188L618,188L617,187L615,187L614,186L613,185L612,184L612,183L611,182L611,181L611,181L611,181" fill="none" stroke-linecap="round" stroke-linejoin="round" stroke="#FFE500" id="495" stroke-width="8"/><path d="M586,153L586,153L585,153L583,153L579,153L572,153L562,155L551,158L541,162L534,164L529,166L526,167L526,167" fill="none" stroke-linecap="round" stroke-linejoin="round" stroke="#FFE500" id="83" stroke-width="8"/><path d="M603,114L602,114L601,113L597,109L590,104L584,99L578,94L572,90L567,86L562,83L559,80L557,79L556,78L556,78" fill="none" stroke-linecap="round" stroke-linejoin="round" stroke="#FFE500" id="317" stroke-width="8"/><path d="M658,103L658,102L659,101L661,97L665,91L670,85L676,79L681,74L685,70L687,68L687,68" fill="none" stroke-linecap="round" stroke-linejoin="round" stroke="#FFE500" id="888" stroke-width="8"/><path d="M690,163L691,163L692,163L695,163L698,163L700,163L701,163L706,163L711,163L717,164L724,166L729,168L735,170L739,173L743,175L744,176L746,177L746,178L746,178L746,178L746,178" fill="none" stroke-linecap="round" stroke-linejoin="round" stroke="#FFE500" id="517" stroke-width="8"/><path d="M642,193L642,193L642,193L642,204L642,215L642,227L642,239L642,249L642,255L642,260L642,265L643,269L644,271L645,272L645,273L645,273L646,273L646,273" fill="none" stroke-linecap="round" stroke-linejoin="round" stroke="#FFE500" id="338" stroke-width="8"/><path d="M604,182L604,183L603,184L599,188L592,195L583,204L574,213L566,220L562,224L559,227L559,227L559,227" fill="none" stroke-linecap="round" stroke-linejoin="round" stroke="#FFE500" id="936" stroke-width="8"/><path d="M45,516L44,519L41,526L36,535L31,544L27,550L25,553L24,554L26,552L34,545L49,530L66,513L79,500L87,493L90,491L91,490L91,493L84,505L72,525L58,546L47,563L41,572L38,576L37,578L37,578L41,574L51,563L63,551L71,542L77,537L80,535L80,536L76,543L65,559L53,576L45,588L40,595L39,597L38,598L41,595L50,586L66,571L83,555L97,543L105,536L109,533L110,533L106,539L92,559L70,589L53,614L40,632L33,642L31,645L32,644L40,636L60,617L84,595L102,579L114,569L120,564L122,563L123,564L117,575L105,596L91,616L80,632L74,641L72,644L72,644L82,636L106,614L136,585L168,558L191,540L202,531L208,527L210,526L200,536L185,553L156,585L135,611L119,629L111,640L108,643L108,643L113,638L132,622L154,603L170,588L184,576L192,568L196,565L197,565L193,571L175,593L153,620L138,640L127,654L121,661L120,663L128,654L155,625L195,585L235,546L265,519L284,504L292,498L295,497L295,499L273,528L263,542L247,564L235,580L228,589L225,592L226,591L237,581L260,559L286,537L306,520L319,510L325,506L326,506L316,519L292,546L271,569L256,586L247,597L243,600L243,600L250,594L268,577L291,555L310,539L322,528L329,523L331,521L329,525L317,539L302,557L289,572L277,587L276,588L275,589L281,586L302,571L337,542L370,515L390,499L401,490L407,487L407,488L395,503L363,540L324,585L295,620L276,642L266,656L262,660L264,660L278,647L313,616L354,580L386,554L403,539L412,532L416,529L415,531L401,548L374,579L345,611L323,636L311,650L307,655L306,655L320,642L353,613L389,583L415,561L434,545L445,537L449,535L447,538L435,554L415,577L396,599L381,616L373,625L371,629L371,629L383,620L432,578L447,566L472,547L488,534L496,528L498,527L491,535L466,561L433,596L408,622L394,636L385,645L383,647L395,637L430,608L468,577L503,550L529,530L539,522L544,520L542,523L525,542L495,573L469,601L453,619L443,631L439,637L439,638L453,630L487,604L526,573L562,545L585,528L593,522L598,520L597,522L583,536L555,566L532,589L519,603L510,613L508,615L513,612L536,594L575,562L609,534L632,516L645,507L648,506L643,511L623,532L597,560L576,582L562,597L555,605L553,608L557,604L578,586L619,549L660,514L686,493L701,482L710,477L707,482L691,501L658,535L625,569L603,589L589,605L588,606L588,607L603,596L639,563L683,526L713,502L731,488L740,481L742,480L732,493L703,525L669,559L644,585L628,603L620,613L619,616L625,612L647,594L681,566L707,545L723,532L733,524L736,522L731,529L717,545L697,567L682,584L673,595L672,596L673,595L685,585L713,562L737,541L751,529L761,522L764,520L761,524L746,542L724,565L707,584L697,598L692,606L690,608L698,602L722,582L744,563L757,553L767,545L770,543L766,549L753,564L740,580L730,592L725,599L724,601L727,600L736,596L749,589L758,584L765,581L765,583L762,591L755,603L749,612L745,617L744,619L745,619L749,616L756,611L760,608L762,607L761,608L757,614L750,625L746,632L746,632" fill="none" stroke-linecap="round" stroke-linejoin="round" stroke="#12EB0A" id="501" stroke-width="8"/><path d="M33,21L33,23L30,30L25,42L20,57L15,70L12,79L10,85L10,88L10,88L13,84L19,75L31,62L45,46L56,35L62,29L66,27L67,27L63,34L51,55L35,80L24,98L16,112L11,122L9,125L10,124L20,115L40,96L62,73L80,54L92,41L100,34L102,32L101,38L94,52L78,75L62,98L50,114L43,124L41,128L42,127L54,116L73,95L96,71L116,52L127,42L134,38L136,37L136,41L131,53L124,69L117,82L113,91L112,95L113,95L121,90L137,78L157,62L173,49L182,41L187,38L189,37L188,43L184,55L178,66L173,75L171,79L171,80L173,78L184,71L201,58L214,49L223,44L228,42L229,42L229,47L224,58L219,68L215,75L213,79L212,80L217,80L228,74L244,61L258,50L267,43L273,39L275,39L275,43L271,54L266,66L261,76L259,82L259,85L260,85L268,78L285,62L303,46L317,33L326,25L330,22L331,25L327,36L319,56L308,78L301,94L298,103L297,108L298,108L304,102L317,86L332,68L345,54L353,46L356,44L353,52L340,78L318,119L299,155L288,176L282,188L279,194L280,194L288,183L304,161L323,135L340,114L352,102L359,96L361,96L356,108L346,129L335,150L326,167L322,178L321,182L324,179L339,158L368,120L397,84L418,59L432,45L439,38L440,40L431,57L410,89L388,122L373,145L363,160L357,171L363,163L379,142L400,114L421,88L437,69L445,61L449,58L445,66L428,91L398,133L365,178L344,207L332,225L325,235L325,237L334,226L354,201L386,165L422,127L446,104L462,91L471,84L474,83L465,97L438,132L403,176L376,211L358,237L347,252L343,259L344,257L354,244L380,212L411,176L438,147L457,128L466,121L469,118L466,126L450,151L425,185L404,213L391,233L385,243L383,247L384,246L392,237L410,216L440,185L444,181L450,176L453,174L452,179L445,192L433,210L424,224L419,232L417,237L418,237L423,232L436,220L448,208L456,202L461,198L461,198L460,205L455,218L450,230L446,239L444,244L444,246L448,243L459,232L473,218L484,207L490,202L494,200L493,204L489,213L483,225L475,238L474,240L474,242L474,242L478,238L486,230L492,223L495,220L497,218L497,221L490,233L480,252L471,267L465,276L463,280L461,285L454,304L445,327L440,341L437,350L436,361L436,362L438,363L445,357L457,343L469,327L477,315L482,308L485,306L484,308L480,319L473,334L467,346L464,353L463,356L464,353L470,339L483,318L494,302L500,294L503,290L504,291L502,302L496,323L488,347L483,364L480,374L480,378L484,372L499,350L517,322L530,302L542,287L544,285L545,286L544,300L538,324L530,346L525,363L522,374L522,377L524,376L532,366L544,350L554,339L561,333L565,330L567,331L567,340L564,355L559,369L556,376L556,377L564,372L580,361L596,348L613,335L629,324L638,319L641,321L636,339L621,374L605,407L594,430L587,444L585,450L584,451L589,444L603,424L621,399L636,378L650,361L661,350L661,351L658,359L649,376L639,394L633,407L630,415L630,418L636,412L656,390L682,358L703,331L717,313L726,304L729,302L724,313L717,323L702,347L690,367L684,378L682,384L683,386L687,382L697,370L714,352L727,337L735,329L740,325L741,325L738,332L730,348L723,365L719,376L717,384L718,387L722,382L734,369L748,351L757,339L764,332L767,329L768,329L767,332L765,338L763,343L762,346L762,346" fill="none" stroke-linecap="round" stroke-linejoin="round" stroke="#00A0FF" id="499" stroke-width="8"/><path d="M227,375L227,375L227,375L227,379L227,385L226,390L226,394L226,396L229,393L239,381L254,364L265,351L273,343L278,339L280,339L276,350L266,371L255,391L246,406L240,415L238,419L241,415L256,398L279,370L301,344L317,325L328,314L332,311L329,321L318,343L301,370L287,394L279,407L275,415L276,413L285,402L308,373L332,343L349,324L360,312L364,309L360,319L347,344L329,374L316,397L310,408L306,416L308,414L321,401L342,379L359,360L373,346L381,339L383,340L379,352L367,372L354,392L345,407L341,414L340,417L344,413L355,400L372,381L386,365L394,357L399,354L398,357L394,368L386,385L379,400L375,408L373,413L373,413L377,406L387,391L398,376L405,367L408,363L409,363L408,370L403,384L398,398L394,407L393,411L393,412L396,409L404,399L414,386L422,376L428,369L431,366L432,365L432,365L432,365L433,365L433,365" fill="none" stroke-linecap="round" stroke-linejoin="round" stroke="#00A0FF" id="449" stroke-width="8"/></svg>