<svg xmlns="http://www.w3.org/2000/svg" version="1.1" class="drawSvg" width="792" height="725"><rect id="bg" width="100%" height="100%" fill="#FFFFFF"/><path d="M179,271L179,271L177,271L172,271L163,271L153,271L144,271L134,271L124,269L118,265L112,261L106,254L100,246L94,236L89,223L88,218L87,207L87,195L87,185L87,175L90,164L94,155L100,148L108,140L114,133L120,128L127,123L134,118L142,115L152,112L161,110L168,109L176,109L184,109L194,109L219,116L236,127L243,134L250,143L257,153L264,164L270,176L274,184L276,191L279,199L280,205L281,209L281,212L281,215L281,218L281,222L281,225L281,228L280,231L278,235L275,239L272,243L269,248L265,252L261,255L258,259L254,262L250,265L245,268L240,269L234,271L228,272L222,273L217,275L213,275L208,276L204,276L200,276L197,276L193,276L190,275L188,274L186,273L184,271L183,270L182,270L182,270" fill="none" stroke-linecap="round" stroke-linejoin="round" stroke="#292929" id="108" stroke-width="8"/><path d="M135,182L135,181L135,181L135,179L135,176L135,174L135,172L135,168L135,165L135,162L135,159L136,158L137,157L138,157L139,156L141,156L143,156L144,156L145,156L146,156L147,157L148,159L148,160L149,161L150,162L150,163L151,163L151,164L151,164L151,164L151,164L152,164L152,165L152,165L152,165L152,165" fill="none" stroke-linecap="round" stroke-linejoin="round" stroke="#292929" id="972" stroke-width="8"/><path d="M175,166L175,166L175,165L175,164L175,162L175,159L175,155L175,151L175,145L175,141L176,138L178,136L178,136L178,136L179,136L179,136L179,136L180,137L180,137L181,138L182,139L184,140L186,142L187,143L189,145L190,147L191,149L191,151L192,152L193,153L193,155L193,156L194,156L194,156" fill="none" stroke-linecap="round" stroke-linejoin="round" stroke="#292929" id="544" stroke-width="8"/><path d="M148,229L149,229L151,229L158,229L165,229L173,229L182,229L189,229L194,229L198,227L201,224L204,220L205,216L207,212L208,207L209,203L209,200L209,198L209,197L209,197L209,197L209,198L209,198L209,200L209,200" fill="none" stroke-linecap="round" stroke-linejoin="round" stroke="#292929" id="37" stroke-width="8"/><path d="M532,365L532,362L532,353L532,338L532,318L532,296L532,277L534,263L537,254L540,247L544,243L547,240L551,238L555,237L558,237L561,237L564,240L566,246L568,255L571,268L572,284L574,298L575,311L575,323L575,332L575,341L575,348L575,353L575,356L575,357L575,358L575,358L575,354L575,346L576,335L579,322L584,308L590,295L595,284L600,275L605,268L610,263L614,258L618,255L622,252L625,249L628,247L631,246L633,245L634,245L637,246L638,253L640,263L641,278L641,297L641,316L641,333L639,346L637,354L636,359L635,361L634,362L634,362L634,363L634,363L634,363L634,363" fill="none" stroke-linecap="round" stroke-linejoin="round" stroke="#292929" id="234" stroke-width="8"/><path d="M532,370L532,370L532,373L530,378L528,385L525,394L522,404L520,414L520,422L519,431L519,443L519,447L519,455L519,462L520,469L522,475L525,480L527,483L529,486L532,489L535,491L540,494L546,496L552,498L559,499L567,499L574,499L580,499L586,498L591,496L597,494L602,490L608,486L614,481L619,475L624,470L628,464L631,459L632,453L633,448L635,441L636,435L636,427L637,418L638,411L639,404L639,399L640,394L640,390L640,387L640,384L640,382L640,380L640,379L640,377L640,375L639,374L639,373L639,373L639,373L639,373" fill="none" stroke-linecap="round" stroke-linejoin="round" stroke="#292929" id="56" stroke-width="8"/><path d="M565,436L565,436L567,436L570,436L575,436L580,436L584,436L587,436L588,436L589,436L590,436L590,436L590,436L590,436L590,436" fill="none" stroke-linecap="round" stroke-linejoin="round" stroke="#292929" id="234" stroke-width="8"/><path d="M571,441L571,441L571,442L571,446L571,450L571,454L571,457L571,459L571,460L571,462L571,462L572,463L573,463L574,463L575,463L576,463L576,463L577,463L578,461L578,459L578,457L578,455L578,454L578,453L578,452L578,452L578,452L578,452L578,452L578,451L578,452L579,454L579,457L580,460L582,462L582,463L583,464L583,464L584,464L585,464L586,464L587,464L588,463L589,462L589,461L589,460L589,459L589,458L589,457L589,455L589,453L589,452L588,451L588,451L588,450L588,450L588,449L588,447L588,446L588,445L588,444L588,444L588,444L588,443L588,442L588,442L588,441L588,441L588,441" fill="none" stroke-linecap="round" stroke-linejoin="round" stroke="#292929" id="310" stroke-width="8"/><path d="M558,382L558,384L558,388L559,394L559,401L560,406L561,410L561,410L561,410L561,410" fill="none" stroke-linecap="round" stroke-linejoin="round" stroke="#292929" id="92" stroke-width="8"/><path d="M593,385L593,386L593,390L593,394L593,399L593,402L593,404L593,406L593,408L593,409L593,409L593,409L593,410L593,410L593,410L593,410L593,411L593,411L593,411L593,411L593,411" fill="none" stroke-linecap="round" stroke-linejoin="round" stroke="#292929" id="919" stroke-width="8"/><path d="M550,345L550,345L550,344L550,341L550,339L550,334L550,331L550,327L550,322L550,319L550,315L550,312L550,309L550,305L550,302L550,300L550,298L550,296L550,295L550,294L550,294L550,293L551,293L551,293L551,293L552,293L552,293L553,293L554,293L555,294L556,295L557,297L559,299L560,301L561,304L562,307L563,311L564,315L565,320L565,324L566,328L566,332L567,337L567,343L568,348L568,352L568,354L568,356L568,356L569,356L569,356" fill="none" stroke-linecap="round" stroke-linejoin="round" stroke="#292929" id="785" stroke-width="8"/><path d="M592,347L592,347L592,345L592,340L592,333L592,326L592,320L592,315L592,313L592,311L593,309L593,307L594,305L595,303L597,300L600,297L603,294L605,292L607,290L608,288L609,288L609,287L610,287L610,287L611,287L611,287L612,287L613,287L613,288L614,290L615,293L615,296L615,301L615,307L615,313L615,320L615,328L615,336L614,342L613,347L613,350L613,351L613,352L613,352" fill="none" stroke-linecap="round" stroke-linejoin="round" stroke="#292929" id="354" stroke-width="8"/><path d="M225,486L225,484L225,478L230,468L238,455L246,444L253,438L258,434L262,433L266,433L268,434L271,438L274,444L276,450L278,454L278,456L279,458L279,457L279,453L283,445L290,433L298,423L306,417L313,412L318,411L320,411L322,412L324,414L326,418L327,422L328,426L328,427L328,428L328,428L333,426L345,422L359,417L372,415L386,415L397,417L404,424L408,437L410,454L410,472L409,485L405,493L402,497L401,499L400,499L400,499L403,501L408,507L418,524L421,534L423,543L424,554L425,568L424,577L422,582L419,584L417,585L415,585L414,585L414,585L414,584L414,584L415,586L416,590L417,595L415,601L408,606L394,612L378,617L364,619L352,620L342,620L336,618L332,615L330,612L329,610L329,609L328,609L324,610L316,611L301,613L283,613L269,613L256,611L245,606L240,598L238,591L237,581L237,574L238,569L240,567L241,566L242,566L243,566L243,566L243,566L242,566L239,566L234,566L226,563L218,557L212,548L208,539L206,530L205,522L204,515L205,511L206,508L208,507L209,506L211,505L212,505L212,505L212,504L213,504L213,504L213,504L213,503L214,503L215,502L216,500L219,499L221,498L222,497L223,497L224,497L224,497L224,497L224,496L223,495L223,494L223,492L223,490L222,488L222,487L222,486L222,486L222,486L223,485L223,485L223,485L223,485L223,484L223,484" fill="none" stroke-linecap="round" stroke-linejoin="round" stroke="#FF3030" id="305" stroke-width="8"/><path d="M312,545L312,545L311,545L308,545L304,545L301,545L299,545L298,545L296,545L294,543L293,541L290,538L289,535L287,532L286,530L285,527L285,525L284,522L284,520L284,516L285,511L285,505L287,499L289,494L291,490L293,487L295,484L297,481L300,478L304,475L309,471L313,469L318,468L322,467L327,466L333,466L339,466L344,466L350,467L356,468L361,471L366,474L370,477L374,481L378,485L381,490L384,496L386,501L388,506L388,511L388,515L388,520L387,524L384,529L380,534L376,538L373,540L371,541L368,542L364,543L360,543L356,544L353,545L349,545L343,546L341,546L336,546L333,546L330,546L326,546L323,546L320,546L317,545L315,544L312,542L310,541L309,540L308,540L307,539L307,539" fill="none" stroke-linecap="round" stroke-linejoin="round" stroke="#FFE500" id="584" stroke-width="8"/><path d="M321,482L320,482L318,484L314,488L310,494L306,499L304,503L303,505L303,505L303,505L306,503L317,494L328,485L337,477L343,471L346,469L346,469L345,472L338,481L328,497L319,511L314,519L312,524L311,525L311,524L316,517L323,508L329,500L333,494L335,492L335,493L332,497L326,507L320,518L315,526L313,530L313,531L313,531L314,528L319,521L323,515L327,510L329,508L329,508L329,508L329,510L328,513L327,515L327,516L327,515L330,512L336,507L341,502L344,499L346,498L346,499L343,507L338,519L333,530L331,537L330,540L330,539L334,533L341,522L347,513L350,507L352,505L352,505L352,507L350,512L349,516L348,519L347,520L348,519L350,517L352,515L352,515L352,520L352,520" fill="none" stroke-linecap="round" stroke-linejoin="round" stroke="#FFE500" id="243" stroke-width="8"/><path d="M450,224L450,223L450,222L450,219L450,213L450,208L450,202L450,195L451,188L454,180L458,173L463,164L470,155L477,147L483,142L492,135L494,133L500,131L505,129L510,127L515,126L519,125L524,125L528,124L532,123L535,123L537,123L538,123L539,123L539,123L539,123" fill="none" stroke-linecap="round" stroke-linejoin="round" stroke="#292929" id="242" stroke-width="8"/><path d="M543,112L543,112L545,113L547,114L549,115L551,117L553,118L555,120L556,122L557,123L558,124L558,124L558,124L558,124L557,125L555,126L552,129L547,133L543,137L539,140L537,141L536,142L536,143L536,143" fill="none" stroke-linecap="round" stroke-linejoin="round" stroke="#292929" id="577" stroke-width="8"/><path d="M252,615L252,616L252,617L251,622L250,627L248,633L245,640L242,648L240,657L238,664L237,671L236,680L235,691L235,699L235,705L235,710L235,714L236,717L236,720L237,722L238,723L239,724L240,722L240,720L240,717L240,713L240,709L240,704L240,700L240,697L241,693L244,684L244,683L245,678L246,674L247,671L248,669L248,666L248,665L249,664L249,663L249,663L249,662L248,662L248,662L248,662L247,662M247,662L247,662" fill="none" stroke-linecap="round" stroke-linejoin="round" stroke="#12EB0A" id="509" stroke-width="8"/><path d="M237,655L237,655L237,654L236,653L236,651L234,649L231,646L227,643L222,639L218,636L214,633L210,630L208,629L207,628L207,628L207,628" fill="none" stroke-linecap="round" stroke-linejoin="round" stroke="#12EB0A" id="420" stroke-width="8"/><path d="M222,638L222,638L222,637L222,635L222,633L222,630L222,627L222,624L222,622L222,619L222,619L221,619L220,618L220,618L218,618L217,618L215,618L213,618L211,618L209,618L207,618L206,618L205,618L204,619L204,619L204,619L203,620L203,620L203,621L203,621L203,621L203,622L203,622L203,623L203,623L204,624L204,625L205,626L206,627L207,628L208,629L209,630L210,631L211,631L212,631L212,631L212,631L212,631" fill="none" stroke-linecap="round" stroke-linejoin="round" stroke="#12EB0A" id="939" stroke-width="8"/><path d="M49,391L49,391L49,391L49,393L50,401L51,411L53,423L55,432L55,440L56,446L56,449L57,450L57,451L57,451L57,450L57,450" fill="none" stroke-linecap="round" stroke-linejoin="round" stroke="#292929" id="36" stroke-width="8"/><path d="M70,393L70,393L70,395L70,400L70,409L71,418L71,425L71,429L72,432L72,433L72,433L72,433L72,434L72,435L72,435L72,435" fill="none" stroke-linecap="round" stroke-linejoin="round" stroke="#292929" id="937" stroke-width="8"/><path d="M55,419L55,419L59,419L64,419L68,419L72,418L75,417L76,417L77,417L77,417L77,417" fill="none" stroke-linecap="round" stroke-linejoin="round" stroke="#292929" id="35" stroke-width="8"/><path d="M94,427L94,427L94,425L94,423L94,421L94,418L94,415L94,412L94,409L94,407L96,405L98,403L100,402L101,401L103,400L104,400L105,400L107,400L108,400L109,400L111,400L113,401L114,402L115,403L116,404L117,406L118,407L118,410L118,413L118,416L118,420L118,424L118,427L117,429L116,431L114,432L113,432L111,432L109,432L106,432L104,432L101,432L98,432L96,431L94,430L93,429L92,428L91,428L91,427L91,426L91,426L91,426" fill="none" stroke-linecap="round" stroke-linejoin="round" stroke="#292929" id="866" stroke-width="8"/><path d="M146,388L146,389L146,394L146,398L146,405L145,412L144,418L144,421L144,422L144,423L144,423L146,422L150,421L155,419L159,418L162,416L164,416L165,416L165,416L165,416L165,416" fill="none" stroke-linecap="round" stroke-linejoin="round" stroke="#292929" id="338" stroke-width="8"/><path d="M177,412L177,411L177,408L177,400L177,392L177,385L177,377L177,373L177,370L177,370L177,370L177,370L178,370L179,371L180,373L182,377L185,381L189,387L191,391L192,394L193,396L194,397L194,397L194,397" fill="none" stroke-linecap="round" stroke-linejoin="round" stroke="#292929" id="212" stroke-width="8"/><path d="M179,393L180,393L180,393L181,393L182,393L183,393L183,393L183,393L184,393L185,392L186,392L187,392L188,392L188,392L188,392L188,392" fill="none" stroke-linecap="round" stroke-linejoin="round" stroke="#292929" id="113" stroke-width="8"/><path d="M196,363L196,364L196,365L197,368L198,371L200,375L203,380L205,385L207,388L208,391L208,392L208,393L208,393L208,393" fill="none" stroke-linecap="round" stroke-linejoin="round" stroke="#292929" id="275" stroke-width="8"/><path d="M213,408L213,408" fill="none" stroke-linecap="round" stroke-linejoin="round" stroke="#292929" id="932" stroke-width="8"/><path d="M213,408L213,408" fill="none" stroke-linecap="round" stroke-linejoin="round" stroke="#292929" id="510" stroke-width="8"/><path d="M444,50L443,50L440,50L435,50L428,52L422,54L417,57L414,59L411,62L409,64L408,67L408,69L408,71L408,72L408,73L409,74L413,76L419,78L427,80L436,82L444,82L451,82L457,82L460,82L462,81L462,81L463,81L463,81" fill="none" stroke-linecap="round" stroke-linejoin="round" stroke="#292929" id="63" stroke-width="8"/><path d="M468,52L468,52L468,53L468,55L469,57L471,60L472,63L473,65L473,67L473,68L474,69L474,69L475,71L475,71L475,71L475,72L475,72L475,72L475,72" fill="none" stroke-linecap="round" stroke-linejoin="round" stroke="#292929" id="981" stroke-width="8"/><path d="M496,79L496,78L496,77L496,72L496,67L496,62L496,57L496,54L496,52L496,51L496,50L496,49L496,48L497,47L497,46L497,45L498,45L498,45L498,45L499,45L499,45L499,45L499,45L500,45L500,46L501,47L503,49L505,52L508,56L511,61L514,65L516,69L518,72L518,73L519,75L519,75L519,75" fill="none" stroke-linecap="round" stroke-linejoin="round" stroke="#292929" id="398" stroke-width="8"/><path d="M498,65L498,65L500,65L503,65L508,65L513,65L519,65L519,65L520,65L520,65L520,65" fill="none" stroke-linecap="round" stroke-linejoin="round" stroke="#292929" id="621" stroke-width="8"/><path d="M544,70L544,70L542,70L540,70L536,70L532,69L530,67L528,65L527,63L526,59L526,54L526,49L526,45L526,42L526,39L527,37L528,36L529,35L530,34L532,34L534,34L537,34L539,34L541,34L543,34L546,36L550,39L554,44L557,49L559,54L561,58L561,61L562,63L562,65L562,66L561,66L560,67L558,68L557,68L555,69L554,70L553,70L552,70L552,70" fill="none" stroke-linecap="round" stroke-linejoin="round" stroke="#292929" id="805" stroke-width="8"/><path d="M578,30L578,31L579,36L580,42L582,51L584,59L586,65L587,70L587,74L588,75L588,76L588,76L588,76" fill="none" stroke-linecap="round" stroke-linejoin="round" stroke="#292929" id="903" stroke-width="8"/><path d="M590,93L590,93" fill="none" stroke-linecap="round" stroke-linejoin="round" stroke="#292929" id="677" stroke-width="8"/><path d="M577,576L579,574L579,574L580,574L580,574L578,578L571,591L561,609L546,635L530,660L520,675L511,690L506,698L504,701L503,702L503,703L503,703L504,703L504,703L504,703" fill="none" stroke-linecap="round" stroke-linejoin="round" stroke="#292929" id="836" stroke-width="8"/><path d="M536,591L536,591L536,592L536,595L536,599L536,603L537,607L538,611L538,613L539,615L539,617L540,618L540,620L540,621L540,622L541,623L541,624L541,625L541,626L542,627L542,628L542,629L543,629L543,630L543,631L543,632L544,633L544,634L544,634L544,634L544,634" fill="none" stroke-linecap="round" stroke-linejoin="round" stroke="#292929" id="893" stroke-width="8"/><path d="M565,651L566,651L571,651L579,651L588,651L597,650L604,647L609,644L613,640L614,638L615,637L615,636L615,636L614,635L613,635L611,635L608,635L602,635L595,635L587,637L580,639L575,642L571,644L569,646L569,648L568,649L568,650L568,651L569,654L570,658L573,663L576,670L578,673L582,677L586,680L591,683L597,684L602,684L607,684L610,683L613,682L615,682L616,681L616,681L616,681" fill="none" stroke-linecap="round" stroke-linejoin="round" stroke="#292929" id="217" stroke-width="8"/><path d="M636,679L636,679L636,677L636,671L636,661L636,650L636,641L636,633L636,626L637,621L638,618L639,616L639,616L639,616L640,616L640,616L640,617L642,621L644,628L648,639L653,651L657,662L661,670L664,677L665,680L666,681L666,682L666,682" fill="none" stroke-linecap="round" stroke-linejoin="round" stroke="#292929" id="429" stroke-width="8"/><path d="M634,654L635,654L637,654L639,654L642,654L645,654L647,654L649,654L649,654L650,654L650,654L650,654L651,654L651,654L651,654L651,654L651,654" fill="none" stroke-linecap="round" stroke-linejoin="round" stroke="#292929" id="976" stroke-width="8"/><path d="M669,606L669,607L669,608L669,612L669,625L671,632L674,645L675,652L677,657L678,666L679,672L680,676L680,678L680,678L680,678" fill="none" stroke-linecap="round" stroke-linejoin="round" stroke="#292929" id="21" stroke-width="8"/><path d="M681,691L682,691L682,691" fill="none" stroke-linecap="round" stroke-linejoin="round" stroke="#292929" id="83" stroke-width="8"/><path d="M146,173L146,173" fill="none" stroke-linecap="round" stroke-linejoin="round" stroke="#00A0FF" id="133" stroke-width="8"/><path d="M184,158L184,158" fill="none" stroke-linecap="round" stroke-linejoin="round" stroke="#00A0FF" id="790" stroke-width="8"/><path d="M42,46L42,46L42,51L42,57L42,63L42,69L42,70L43,69L48,63L60,50L74,35L84,24L90,18L92,17L93,17L92,21L89,32L84,44L80,54L77,61L75,64L75,64L76,63L80,57L87,50L92,44L95,41L96,40L96,42L96,46L96,49L95,51L95,51L96,51L100,47L106,41L112,37L115,35L117,34L118,34L118,36L118,40L118,45L118,49L118,52L121,51L138,41L184,2L209,-1L208,2L204,6L201,9L198,12L196,14L194,16L193,17L192,18L191,19L190,19L190,20L189,20L189,20L188,21L188,21L188,21L188,21L188,22L187,22L187,22L187,22L187,22L186,22L185,23L185,23L184,23L184,23L183,23L183,24L183,24L182,24M182,24L182,24L182,24" fill="none" stroke-linecap="round" stroke-linejoin="round" stroke="#00A0FF" id="70" stroke-width="8"/><path d="M698,136L698,136L698,135L698,132L700,128L704,124L708,120L711,117L714,116L716,116L716,116L717,116L717,116L718,118L718,120L718,122L719,124L720,127L720,133L721,139L721,147L721,153L721,157L721,159L721,160L721,160L721,160L722,159L722,157L723,154L725,151L728,147L731,145L734,142L737,141L739,140L741,140L743,140L744,140L745,140L745,140L745,140L745,141L745,143L745,146L743,151L738,160L729,171L719,183L711,192L703,201L698,207L695,210L693,211L693,212L693,212" fill="none" stroke-linecap="round" stroke-linejoin="round" stroke="#FF3030" id="776" stroke-width="8"/><path d="M700,131L700,131L700,132L700,133L700,136L700,142L700,150L700,158L700,166L700,173L700,179L700,183L700,187L700,190L700,193L700,194L700,195L700,196L700,196L700,196" fill="none" stroke-linecap="round" stroke-linejoin="round" stroke="#FF3030" id="892" stroke-width="8"/></svg>