<svg xmlns="http://www.w3.org/2000/svg" version="1.1" class="drawSvg" width="792" height="725"><rect id="bg" width="100%" height="100%" fill="#FFFFFF"/><path d="M97,59L97,59L97,61L97,64L97,70L97,76L97,82L97,88L97,96L98,103L98,109L99,116L100,121L100,125L101,129L101,131L101,133L101,135L101,137L101,138L101,139L101,139L101,140L101,140L101,140L102,140L102,140L102,140L104,140L107,140L112,140L119,140L126,140L133,140L140,140L146,140L152,140L159,141L166,141L173,142L179,142L184,143L188,143L192,144L196,144L201,144L206,144L212,144L218,144L224,145L230,145L236,145L242,146L249,146L256,146L263,147L269,147L276,148L283,148L291,148L300,149L306,150L314,150L321,150L328,150L335,151L341,152L346,152L351,152L357,153L362,153L368,153L374,153L380,153L386,153L392,153L398,154L404,154L409,154L414,155L418,155L421,156L423,156L424,156L424,156L425,156L425,156L425,155L425,154L425,152L425,150L425,147L425,144L425,140L425,136L425,134L425,131L425,128L425,126L425,123L425,120L425,117L425,114L425,111L425,108L425,105L425,102L425,100L425,98L425,95L425,92L425,90L425,89L425,88L425,87L425,85L425,83L426,82L426,81L426,81L426,81L426,80L427,79L427,78L427,78L427,77L427,77L427,77L427,76L427,75L427,74L427,74L427,73L427,73L427,72L427,72L427,72L427,72L427,72L427,71L426,71L424,71L421,71L417,71L412,71L405,71L398,71L391,71L384,72L376,72L364,72L361,72L355,73L349,73L344,73L339,73L334,73L328,73L322,73L316,73L310,73L305,73L301,73L297,73L293,73L288,73L277,73L273,73L265,73L257,73L249,73L241,73L234,73L226,73L218,73L211,73L205,73L199,73L195,72L191,72L186,71L182,71L178,71L174,71L169,71L165,71L161,71L157,71L153,70L150,70L148,70L145,70L142,69L139,69L135,69L132,68L128,68L125,68L122,68L119,67L117,67L114,66L112,65L110,64L108,63L106,63L105,62L105,62L105,61L105,61L104,61L104,61L104,61L104,61L104,61L104,61L103,61L103,61L103,61L103,61L103,61L102,61L102,61L102,61L102,61L101,61L101,61L101,61" fill="none" stroke-linecap="round" stroke-linejoin="round" stroke="#292929" id="843" stroke-width="8"/><path d="M524,314L524,315L524,318L524,323L524,329L524,336L524,344L524,353L524,363L524,371L524,379L524,388L524,397L523,407L522,417L521,426L520,438L520,441L519,448L518,455L518,463L518,470L517,476L516,481L516,485L515,487L515,488L515,489L515,489L518,488L524,488L532,487L541,486L553,484L565,484L577,484L589,484L600,484L610,484L619,484L629,484L637,484L645,485L650,486L654,487L656,487L657,487L659,487L661,487L663,487L665,487L668,487L670,487L672,487L673,486L674,486L674,484L674,481L674,477L674,469L674,457L672,443L670,427L669,411L668,397L666,382L665,367L664,355L663,346L663,336L662,324L662,315L662,308L662,300L662,299L662,298L662,297L662,297L662,297L662,297L660,297L658,297L653,296L648,296L643,296L638,296L634,296L629,296L624,296L619,296L614,296L610,296L605,296L602,296L598,296L596,297L593,297L591,297L588,297L585,297L581,297L577,297L572,297L568,297L561,297L559,297L555,297L552,297L549,297L547,297L544,297L543,297L542,297L540,297L539,297L538,297L537,297L536,297L535,297L534,297L533,297L532,297L532,297L531,297L531,297L531,297L530,297L530,297L529,297L528,297L527,297L526,297L525,297L524,297L523,297L523,297L523,297L523,297L523,298L523,298L523,298L523,299L523,299L523,300L523,301L523,302L523,302L523,304L523,305L523,306L523,307L523,308L523,309L523,309L523,310L523,311L523,311L523,312L523,313L523,314L523,315L523,316L523,316L523,317L523,318L523,318L523,318" fill="none" stroke-linecap="round" stroke-linejoin="round" stroke="#292929" id="762" stroke-width="8"/><path d="M63,448L63,448L63,446L63,441L63,435L64,428L66,423L69,419L72,417L75,416L80,416L84,418L89,423L92,429L95,434L96,437L97,438L97,439L97,439L97,438L99,434L102,427L107,421L111,418L117,415L123,414L130,415L137,417L142,422L144,426L146,430L147,432L147,433L147,433L148,431L151,428L158,425L168,422L182,422L195,422L205,423L213,426L216,429L218,431L218,433L218,434L218,434L218,434L219,434L221,434L226,435L236,437L248,442L263,451L273,459L278,465L281,470L282,472L282,474L282,475L282,475L282,475L283,476L286,476L290,479L296,485L300,492L302,501L302,512L299,522L291,531L283,537L275,541L268,543L263,543L261,543L260,543L260,544L257,548L250,556L239,565L220,574L206,579L198,581L186,582L176,582L172,581L170,579L167,576L166,575L166,573L166,573L165,572L163,572L157,572L147,570L137,567L124,561L112,551L105,542L102,534L100,527L100,522L100,519L101,517L103,516L104,516L105,516L104,517L101,518L95,519L88,520L80,520L72,519L65,516L60,510L56,501L55,492L55,484L55,478L56,472L57,469L58,467L58,466L59,465L60,464L60,464L60,463L60,463L60,463L60,463L60,463L60,463L59,463L58,463L58,463L57,462L57,460L56,457L56,452L56,447L56,442L57,439L58,438L59,437L60,437L60,437L61,437L61,437L62,437L62,437L62,437L63,438L63,438L63,438L63,438L63,438L63,438L63,438L63,439L63,439" fill="none" stroke-linecap="round" stroke-linejoin="round" stroke="#292929" id="200" stroke-width="8"/><path d="M228,175L227,176L226,179L224,184L220,192L213,204L205,218L196,234L185,256L182,264L176,280L171,296L166,309L163,322L161,331L160,339L159,345L159,351L159,357L159,363L159,368L159,373L159,379L159,382L159,384L159,387L159,391L159,395L159,399L159,403L159,405L160,407L160,408L160,409L160,409" fill="none" stroke-linecap="round" stroke-linejoin="round" stroke="#292929" id="550" stroke-width="8"/><path d="M145,398L146,398L148,399L150,401L153,404L155,405L158,406L159,408L161,408L162,409L162,409L163,409L163,409L163,409L163,408L164,408L164,407L165,405L166,402L169,399L172,396L176,392L179,389L181,387L182,386L183,385L184,385L184,385L184,385" fill="none" stroke-linecap="round" stroke-linejoin="round" stroke="#292929" id="522" stroke-width="8"/><path d="M234,176L234,176L234,176L234,178L234,180L234,184L234,191L236,202L239,216L242,228L245,239L251,252L257,264L263,275L271,285L279,295L285,303L292,311L299,318L306,324L314,330L323,336L333,341L344,346L353,350L361,353L369,355L376,357L383,358L389,359L394,360L400,361L405,362L410,363L415,364L420,366L425,367L431,368L437,370L443,371L447,372L450,373L452,374L454,375L454,375L455,375L456,375L456,375L456,375L457,375L457,375L457,375L459,375L460,375L462,375L463,376L465,376L465,376L466,377L467,377L468,377L468,377L469,377L470,377L471,378L472,378L474,378L474,378L475,379L476,379L477,379L478,379L479,379L479,380L480,380L481,380L481,380L481,380L482,380L482,380L483,380L483,380L483,380L483,381L483,381" fill="none" stroke-linecap="round" stroke-linejoin="round" stroke="#292929" id="551" stroke-width="8"/><path d="M480,364L481,365L484,368L489,374L493,380L498,385L501,389L503,391L504,393L505,394L506,394L506,394L506,395L505,395L504,395L502,394L498,394L491,394L484,394L475,394L467,394L460,395L455,396L453,397L451,398L451,398L450,398L450,398L450,398" fill="none" stroke-linecap="round" stroke-linejoin="round" stroke="#292929" id="392" stroke-width="8"/><path d="M587,499L587,500L587,501L587,504L587,508L587,513L587,520L587,526L587,532L587,538L587,542L587,545L587,547L587,548L587,548L587,548" fill="none" stroke-linecap="round" stroke-linejoin="round" stroke="#292929" id="23" stroke-width="8"/><path d="M577,555L577,555L577,556L577,558L578,559L578,561L579,563L581,565L582,567L583,569L583,569L583,570L583,570L584,570L584,570L584,569L584,568L585,567L585,566L586,565L588,564L590,562L593,559L596,556L598,553L600,551L601,549L602,547L602,547L602,546L602,546L601,546L600,547L597,548L594,548L587,548L584,548L578,548L573,548L570,548L569,548L569,548" fill="none" stroke-linecap="round" stroke-linejoin="round" stroke="#292929" id="288" stroke-width="8"/><path d="M516,595L516,595L516,595L516,595L516,595L515,595L515,595L515,595L515,596L515,598L515,603L515,610L515,617L515,623L515,626L515,627L515,629L515,630L515,630L515,630L515,630" fill="none" stroke-linecap="round" stroke-linejoin="round" stroke="#292929" id="128" stroke-width="8"/><path d="M502,591L502,591L506,591L513,591L520,591L527,591L532,591L535,591L536,591L537,591L537,591L537,591" fill="none" stroke-linecap="round" stroke-linejoin="round" stroke="#292929" id="576" stroke-width="8"/><path d="M549,592L549,593L549,598L549,606L549,616L549,624L549,631L549,635L549,637L549,639L549,640L549,640" fill="none" stroke-linecap="round" stroke-linejoin="round" stroke="#292929" id="919" stroke-width="8"/><path d="M550,599L550,599L551,599L553,599L556,599L559,599L562,599L563,599L564,601L565,603L565,607L565,612L565,616L563,621L559,625L555,627L552,627L551,627L549,627L549,627L549,627L549,627L549,627L548,627L548,626L548,626L548,626L548,625L548,624L548,624L548,623L548,623L548,623L549,623L551,623L554,624L556,626L560,627L563,629L565,631L568,633L569,634L570,635L570,635L571,636L571,636" fill="none" stroke-linecap="round" stroke-linejoin="round" stroke="#292929" id="872" stroke-width="8"/><path d="M575,601L575,601L575,601L575,604L575,609L575,614L575,619L575,623L577,626L578,629L581,631L583,632L586,634L588,635L590,636L591,636L593,636L594,635L595,634L596,631L597,628L598,624L600,616L600,612L600,606L600,601L600,598L600,596L600,595L600,595" fill="none" stroke-linecap="round" stroke-linejoin="round" stroke="#292929" id="961" stroke-width="8"/><path d="M611,591L611,591L611,593L611,597L611,603L611,610L611,618L611,623L611,627L611,629L611,630L611,630L611,631L613,631L618,631L624,631L631,631L637,631L643,631L646,631L648,631L648,631L649,631L649,631" fill="none" stroke-linecap="round" stroke-linejoin="round" stroke="#292929" id="492" stroke-width="8"/><path d="M615,610L615,610L617,610L621,610L626,610L632,610L636,610L638,610L638,610L638,610" fill="none" stroke-linecap="round" stroke-linejoin="round" stroke="#292929" id="463" stroke-width="8"/><path d="M613,588L614,588L618,588L626,588L633,588L638,588L642,588L644,588L645,588L645,588" fill="none" stroke-linecap="round" stroke-linejoin="round" stroke="#292929" id="702" stroke-width="8"/><path d="M125,85L125,85L124,88L122,92L120,96L119,99L118,101L118,102L118,103L118,103L121,101L128,96L136,90L141,86L145,83L147,83L148,83L148,83L146,88L140,99L133,110L127,118L123,124L121,127L120,127L122,126L127,119L134,112L139,106L142,103L144,102L144,102L143,105L139,114L132,123L127,131L124,135L122,137L123,137L128,132L141,119L156,106L166,96L173,90L175,88L176,88L175,92L171,100L165,110L160,116L157,120L156,121L156,122L159,119L168,109L180,97L190,87L197,80L200,78L201,78L200,80L196,88L190,96L186,102L183,106L182,108L182,108L184,106L192,97L202,86L209,80L212,76L214,75L214,75L212,81L206,91L199,100L195,107L192,110L191,111L193,109L200,101L212,88L222,78L229,72L232,69L233,68L233,68L232,73L228,79L222,89L218,94L217,96L216,97L218,95L224,88L233,79L240,72L245,67L248,65L248,66L245,73L238,83L231,93L226,100L224,102L224,103L225,103L230,97L239,88L247,80L252,75L255,73L255,73L254,78L247,90L238,102L232,111L228,117L227,119L227,120L229,117L238,109L248,98L255,91L260,88L262,86L262,87L261,90L256,96L252,102L249,106L248,108L247,109L249,107L255,101L265,93L272,86L277,82L279,80L280,80L280,83L275,91L267,101L261,110L257,117L255,119L254,120L256,119L262,114L273,104L281,95L287,90L290,88L291,88L290,90L286,97L280,106L275,113L271,118L270,120L270,121L271,120L276,115L285,106L293,98L298,94L300,92L301,91L300,93L298,97L295,102L293,106L292,107L292,108L292,108L296,105L303,98L312,90L319,85L322,82L324,81L324,81L321,85L316,94L309,104L304,111L302,115L301,117L301,118L303,116L310,110L320,101L328,94L334,90L336,88L336,88L335,90L330,98L322,109L316,116L313,122L312,124L311,125L312,124L318,118L328,108L337,99L343,94L346,91L347,90L347,90L345,94L342,101L337,108L334,114L332,118L332,119L332,120L333,119L337,114L344,107L350,100L354,96L356,94L356,95L354,99L349,108L343,116L340,121L339,124L338,125L339,124L344,119L356,107L367,95L374,89L379,85L380,84L380,85L377,90L370,99L365,107L361,112L360,115L360,116L360,116L365,112L374,101L384,92L390,86L393,83L394,82L394,83L389,90L382,100L375,108L370,115L368,118L368,119L369,118L374,114L378,110L382,106L384,104L385,104L385,105L383,108L380,113L378,116L377,118L377,118L377,118L380,116L385,111L390,107L393,104L395,103L395,103L395,104L394,107L393,109L393,110L393,111L393,110L395,110L396,109L396,109L396,110L396,112L396,115L395,117L395,117" fill="none" stroke-linecap="round" stroke-linejoin="round" stroke="#FF3030" id="844" stroke-width="8"/><path d="M550,310L550,311L550,312L549,314L549,315L549,315L551,314L557,311L564,307L569,305L574,303L576,302L576,302L576,303L572,309L560,322L546,334L536,345L525,355L525,355L524,356L525,355L532,349L545,339L557,329L565,323L569,320L571,320L571,320L569,323L563,329L557,336L553,341L551,344L550,344L551,344L558,338L568,331L577,325L583,321L585,319L586,319L581,325L567,340L553,355L543,366L536,373L534,375L535,375L544,365L581,329L589,324L604,311L615,303L621,300L620,302L611,311L592,331L571,353L555,369L545,378L540,383L539,384L542,380L554,369L574,350L593,334L604,326L610,321L612,321L609,324L594,340L571,363L554,381L540,395L532,403L530,406L530,406L538,398L557,382L582,359L603,340L621,326L622,326L623,325L619,331L603,347L582,371L562,392L548,408L541,416L539,419L539,419L547,412L565,397L585,379L603,362L612,354L616,351L617,350L614,354L601,370L583,389L568,404L557,416L551,422L550,424L553,422L567,411L588,394L610,375L626,362L634,356L639,352L639,353L633,361L619,379L602,400L587,417L580,426L576,431L575,432L581,426L599,408L621,387L638,372L649,362L656,357L657,356L654,361L642,375L624,395L609,412L599,422L594,428L593,431L593,430L598,425L610,412L624,399L634,389L640,383L642,382L640,384L627,398L606,420L581,446L575,452L567,460L564,464L564,464L568,460L581,449L596,435L609,425L617,418L621,415L622,415L620,417L614,425L607,434L602,441L599,445L598,446L599,446L605,441L616,433L626,426L631,422L636,420L636,422L631,430L622,443L613,455L606,463L603,467L603,468L604,467L613,460L627,449L638,441L646,436L649,434L650,434L649,437L644,443L639,449L635,454L634,456L633,457L635,456L639,454L644,450L649,447L651,446L652,446L652,448L651,453L649,457L647,460L646,462L646,462L647,462L649,461L651,460L652,459L653,459L653,460L653,461L653,461" fill="none" stroke-linecap="round" stroke-linejoin="round" stroke="#12EB0A" id="457" stroke-width="8"/><path d="M610,83L610,83L613,84L619,85L626,88L635,89L643,90L650,90L657,90L664,90L669,90L674,90L679,88L683,86L686,85L688,83L689,82L690,81L691,80L691,79L691,79L691,78L690,78L689,77L685,76L681,75L676,74L669,72L661,71L653,70L645,70L639,69L633,69L629,69L625,69L622,70L620,71L618,72L616,73L614,74L612,75L611,76L611,77L610,79L610,79L610,80L610,81L610,81L610,82L610,82L611,82L611,83L612,83L613,83L613,83L614,83L614,83L614,83" fill="none" stroke-linecap="round" stroke-linejoin="round" stroke="#292929" id="589" stroke-width="8"/><path d="M610,82L610,82L610,83L610,85L610,87L610,91L610,94L610,98L610,100L610,102L610,103L610,104L610,105L610,106L610,107L609,109L609,110L609,112L609,114L608,117L608,120L608,121L608,123L607,124L607,125L607,126L607,127L607,128L607,129L606,132L606,133L606,135L606,137L606,138L606,140L606,142L605,144L605,146L605,147L605,148L605,148L605,149L605,149L605,150L605,150L605,151L605,152L604,155L604,158L603,160L603,161L603,162L603,162L603,163L603,163L603,162L603,162L603,162" fill="none" stroke-linecap="round" stroke-linejoin="round" stroke="#292929" id="638" stroke-width="8"/><path d="M693,82L693,82L693,84L693,88L693,95L693,102L693,109L693,117L693,122L693,127L693,130L693,133L692,137L692,141L691,144L691,146L690,148L690,149L690,149L690,150L690,151L689,152L689,152L689,153L689,153L688,153L688,154L687,156L687,156L687,157L687,158L687,158L687,158L687,158L687,158" fill="none" stroke-linecap="round" stroke-linejoin="round" stroke="#292929" id="87" stroke-width="8"/><path d="M605,166L605,166L605,167L607,169L609,171L611,172L614,174L616,176L620,177L624,178L627,179L631,180L634,181L638,181L641,181L644,181L647,181L650,181L653,181L656,180L658,178L660,177L662,176L664,174L666,173L667,172L669,171L670,171L670,170L671,170L672,169L673,169L674,168L676,166L677,165L678,164L679,163L680,162L680,162L681,162L681,162" fill="none" stroke-linecap="round" stroke-linejoin="round" stroke="#292929" id="24" stroke-width="8"/><path d="M453,116L453,116L454,116L457,116L460,116L466,116L473,116L479,116L486,116L491,116L496,116L501,116L506,116L511,116L518,116L527,116L537,116L546,116L554,116L558,116L561,116L561,116L562,116L562,116L562,116L564,116L566,116L569,116L570,116L571,116L571,116L571,116L571,116L570,116L570,115L568,114L567,113L565,112L563,110L562,109L560,108L559,106L558,105L558,105L557,104L557,104L557,104L557,104L557,105L558,106L560,107L561,109L563,110L564,111L567,113L569,114L572,116L573,117L574,118L575,118L575,118L574,118L573,119L571,119L569,120L565,122L562,123L557,127L553,130L548,134L544,137L542,138L541,139L541,139L541,139L541,139L541,139" fill="none" stroke-linecap="round" stroke-linejoin="round" stroke="#292929" id="885" stroke-width="8"/><path d="M458,118L458,118L459,117L462,113L466,109L470,106L474,102L476,100L478,99L479,98L480,98L480,98L480,98L480,98L480,99L479,99L478,100L477,101L475,104L472,106L470,108L468,110L466,111L465,112L465,113L464,114L463,115L462,116L461,117L460,118L460,119L459,119L459,119L459,119L459,119L460,120L463,123L466,126L470,130L474,134L477,137L480,139L481,140L482,141L482,141" fill="none" stroke-linecap="round" stroke-linejoin="round" stroke="#292929" id="296" stroke-width="8"/><path d="M109,476L109,476L108,476L107,476L104,476L100,476L96,476L93,476L91,476L90,476L90,477L89,478L89,479L89,480L88,481L87,482L87,483L86,484L86,485L86,485L86,486L87,486L87,487L88,487L89,487L90,488L90,488L91,488L91,489L92,489L93,489L93,489L94,490L95,490L95,490L96,490L97,490L98,490L99,491L100,491L100,491L101,491L102,491L103,491L104,491L105,490L106,489L107,488L108,487L108,487L108,487" fill="none" stroke-linecap="round" stroke-linejoin="round" stroke="#292929" id="223" stroke-width="8"/><path d="M121,473L121,473L121,473L121,474L121,475L121,476L121,477L121,479L121,480L121,481L121,483L121,485L121,488L121,491L121,493L121,494L120,495L120,494L120,494L121,494L122,493L124,493L127,493L131,493L135,492L137,492L137,492L138,492L138,492" fill="none" stroke-linecap="round" stroke-linejoin="round" stroke="#292929" id="197" stroke-width="8"/><path d="M149,495L149,495L149,494L149,494L149,493L149,492L149,491L149,489L149,488L149,487L149,485L149,482L149,480L149,478L150,477L150,476L151,475L152,475L152,475L153,475L154,475L155,475L156,475L157,475L158,476L159,476L159,477L160,477L160,478L160,479L160,479L160,480L160,481L160,482L160,482L160,483L160,484L160,484L160,485L160,486L160,486L160,487L160,487L159,488L158,489L157,489L156,489L155,490L154,490L153,490L153,490L152,490L151,490L150,490L150,490L149,490L148,490L147,490L147,490L147,490L147,490L147,490L147,490" fill="none" stroke-linecap="round" stroke-linejoin="round" stroke="#292929" id="406" stroke-width="8"/><path d="M177,475L177,475L177,475L177,476L177,477L177,478L177,479L177,481L177,482L177,483L177,485L177,486L177,487L177,488L178,489L178,490L179,490L179,491L180,491L180,491L181,492L182,492L183,492L184,492L184,492L186,492L186,492L187,491L187,490L188,489L189,487L189,486L190,484L190,483L190,482L190,481L190,480L190,480L190,480L190,480L189,481L189,481" fill="none" stroke-linecap="round" stroke-linejoin="round" stroke="#292929" id="626" stroke-width="8"/><path d="M203,476L203,476L203,476L203,477L203,479L203,480L203,482L203,484L203,486L203,488L203,490L203,492L203,493L203,495L203,496L203,497L202,498L202,498L202,497L202,497L202,495L202,494L202,492L202,490L202,488L202,486L202,484L202,482L202,481L202,479L202,476L202,474L202,472L202,470L202,469L202,469L202,468L202,468L202,468L203,468L203,468L204,468L204,469L205,469L206,470L207,471L208,471L209,472L210,473L211,474L212,475L213,476L213,477L214,477L214,478L215,479L215,480L215,480L216,481L216,482L216,482L216,483L217,484L217,485L217,486L217,487L217,489L217,489L217,490L217,491L216,492L215,492L213,493L211,493L208,493L206,493L203,493L201,493L199,493L198,493L198,493L198,493L198,493" fill="none" stroke-linecap="round" stroke-linejoin="round" stroke="#292929" id="236" stroke-width="8"/></svg>